<?xml version="1.0" encoding="utf-8"?>
<!-- Generator: Adobe Illustrator 22.1.0, SVG Export Plug-In . SVG Version: 6.00 Build 0)  -->
<svg version="1.1" id="Layer_1" xmlns="http://www.w3.org/2000/svg" xmlns:xlink="http://www.w3.org/1999/xlink" x="0px" y="0px"
	 viewBox="0 0 432.7 151.9" style="enable-background:new 0 0 432.7 151.9;" xml:space="preserve">
<style type="text/css">
	.st0{display:none;}
	.st1{fill:#7D00CA;}
	.st2{fill:#FDB300;}
	.st3{fill:#17A078;}
	.st4{fill:#1DBC94;}
	.st5{fill:#B200FF;}
	.st6{fill:#23D8B6;}
	.st7{fill:#FED941;}
</style>
<polygon class="st0" points="-335.7,-71.9 -165.3,-596.3 5.1,-71.9 "/>
<path class="st0" d="M-5273.1-2616.5c-49.4-152-103.7-319-103.7-319l-138.7,427L-5273.1-2616.5z"/>
<g>
	<g>
		<polygon class="st1" points="69,9.7 59.4,39.1 75.5,88.5 92.2,81 		"/>
		<polygon class="st2" points="57.5,45.1 38,105.2 72.1,90 		"/>
		<polygon class="st3" points="73.2,93.5 17,118.5 10.5,138.5 87.9,138.5 		"/>
		<g>
			<g>
				<path d="M272.2,104l-5.8-0.8c-2.7-0.4-4.6-1.2-5.8-2.1c-1.1-1-1.7-2.4-1.7-4.4c0-1.8,0.7-3.2,2-4.3c1.4-1.1,3.6-1.7,6.7-1.7
					c2.8,0,5.4,0.6,7.7,1.8c2.4,1.2,4.4,2.6,6.1,4.4l8.3-8.3c-1.4-1.4-2.8-2.7-4.3-3.8c-1.5-1.1-3.1-2.1-4.8-2.9
					c-1.8-0.8-3.7-1.4-5.9-1.8c-2.2-0.4-4.6-0.6-7.4-0.6c-3.3,0-6.3,0.4-9,1.3c-2.7,0.8-5,2.1-6.9,3.6c-1.9,1.6-3.4,3.5-4.4,5.7
					c-1,2.2-1.5,4.8-1.5,7.6c0,5.3,1.6,9.3,4.9,12.1c3.3,2.8,8,4.5,14.3,5.3l5.7,0.8c2.6,0.4,4.4,1,5.5,2c1.1,1,1.6,2.3,1.6,4
					c0,2.1-0.8,3.7-2.3,4.8c-1.5,1.2-4,1.8-7.3,1.8c-3.3,0-6.2-0.7-8.8-2.1c-2.5-1.4-4.9-3.3-7-5.7l-8.6,8.4
					c2.9,3.3,6.2,5.9,9.9,7.8c3.7,1.9,8.4,2.8,13.9,2.8c3.6,0,6.9-0.5,9.8-1.4c2.9-0.9,5.4-2.2,7.4-3.9c2.1-1.7,3.7-3.6,4.8-6
					c1.1-2.3,1.7-4.9,1.7-7.7C290.8,111.4,284.6,105.8,272.2,104z M234.7,87.7c-2.3-2.6-5.1-4.6-8.4-6c-3.3-1.4-7-2.1-11.1-2.1
					c-4.1,0-7.8,0.7-11.1,2.1c-3.3,1.4-6.1,3.4-8.4,6c-2.3,2.6-4.1,5.8-5.3,9.4c-1.3,3.7-1.9,7.8-1.9,12.5c0,4.6,0.6,8.8,1.9,12.5
					c1.2,3.7,3,6.9,5.3,9.5c2.3,2.6,5.1,4.7,8.4,6.1c3.3,1.4,7,2.1,11.1,2.1c4.1,0,7.8-0.7,11.1-2.1c3.3-1.4,6.1-3.4,8.4-6.1
					c2.3-2.6,4.1-5.8,5.3-9.5c1.2-3.7,1.9-7.9,1.9-12.5c0-4.6-0.6-8.8-1.9-12.5C238.8,93.5,237,90.4,234.7,87.7z M227.1,115
					c0,4.4-1.1,7.8-3.2,10c-2.1,2.3-5.1,3.4-8.8,3.4c-3.7,0-6.6-1.1-8.7-3.4c-2.1-2.3-3.2-5.6-3.2-10v-10.7c0-4.3,1.1-7.6,3.2-9.9
					c2.1-2.3,5-3.4,8.7-3.4c3.7,0,6.7,1.1,8.8,3.4c2.1,2.3,3.2,5.6,3.2,9.9V115z M147.5,99.2H147l-19.7-37.6h-16.4v76.9h13.8V83.3
					h0.4l6,12.2l15.8,29.1l15.8-29.1l6-12.2h0.4v55.2h13.8V61.6H167L147.5,99.2z M353.6,138.5h14.1V81h-14.1V138.5z M342.5,100.1
					c0-6.6-2-11.7-6.1-15.2c-4-3.5-10-5.3-17.7-5.3c-5.8,0-10.5,1-14,3c-3.5,2-6.4,4.7-8.5,8l8.4,7.5c1.4-2,3.1-3.7,5.1-5.1
					c2-1.4,4.7-2.1,8-2.1c3.7,0,6.5,0.9,8.2,2.6c1.7,1.8,2.5,4.3,2.5,7.5v4.2h-9.8c-7.9,0-13.9,1.4-18.2,4.3
					c-4.3,2.9-6.4,7.3-6.4,13.2c0,5.1,1.6,9.2,4.7,12.3c3.2,3.1,7.7,4.6,13.6,4.6c4.3,0,8-0.9,10.9-2.8c2.9-1.9,4.9-4.7,5.8-8.4h0.7
					c0.4,3,1.6,5.4,3.4,7.2c1.8,1.8,4.2,2.7,7.3,2.7h7.8v-11.4h-5.7V100.1z M328.4,121.4c0,2.7-1.1,4.7-3.3,6.1
					c-2.2,1.4-4.9,2.1-8,2.1c-2.8,0-4.9-0.6-6.4-1.7c-1.5-1.1-2.3-2.9-2.3-5.2v-1.9c0-4.7,3.7-7,11-7h9V121.4z M412.9,119.4
					c-1,2.6-2.5,4.7-4.3,6.4c-1.8,1.7-4.4,2.6-7.8,2.6c-4,0-6.9-1.2-8.9-3.7c-1.9-2.5-2.9-5.7-2.9-9.8v-10.5c0-4,1-7.3,2.9-9.8
					c1.9-2.5,4.9-3.7,8.9-3.7c3.1,0,5.5,0.8,7.3,2.4c1.8,1.6,3,3.6,3.7,6l11.6-5.2c-1.7-4.6-4.4-8.1-8.2-10.7
					c-3.8-2.6-8.6-3.9-14.4-3.9c-4.3,0-8,0.7-11.4,2.1c-3.3,1.4-6.1,3.4-8.3,6c-2.2,2.6-4,5.8-5.1,9.4c-1.2,3.7-1.8,7.8-1.8,12.5
					c0,4.6,0.6,8.8,1.8,12.5c1.2,3.7,2.9,6.9,5.1,9.5c2.2,2.6,5,4.7,8.3,6.1c3.3,1.4,7.1,2.1,11.4,2.1c5.6,0,10.3-1.3,14.2-3.8
					c3.9-2.5,6.8-6.3,8.7-11.4L412.9,119.4z M360.6,56.3c-2.9,0-5.1,0.7-6.3,2c-1.3,1.3-1.9,3-1.9,5.1v2.2c0,2.1,0.6,3.7,1.9,5.1
					c1.3,1.3,3.4,2,6.3,2c2.9,0,5-0.7,6.3-2c1.3-1.3,2-3,2-5.1v-2.2c0-2.1-0.7-3.7-2-5.1C365.6,56.9,363.5,56.3,360.6,56.3z"/>
			</g>
		</g>
		<polygon class="st4" points="87.9,138.5 27.2,138.5 36.5,109.9 		"/>
		<polygon class="st5" points="69,9.7 59.4,39.1 92.2,81 		"/>
		<polygon class="st6" points="17,118.5 10.5,138.5 27.2,138.5 36.5,109.9 		"/>
		<polygon class="st7" points="38,105.2 72.1,90 48.3,73.3 		"/>
	</g>
</g>
</svg>
